# xmcd CD database file
#
# Track frame offsets:
#	150
#	23458
#	47350
#	332550
#
# Disc length: 4440 seconds
#
# Revision: 0
# Processed by: cddbd v1.5PL3 Copyright (c) Steve Scherf et al.
# Submitted via: CDex 1.50
#
DISCID=21115604
DTITLE=スネオヘアー - セイコウトウテイ
DYEAR=2003
DGENRE=JPop
TTITLE0=セイコウトウテイ
TTITLE1=サマー様
TTITLE2=CCCD
TTITLE3=CCCD
EXTD=YEAR: 2003
EXTT0=
EXTT1=
EXTT2=
EXTT3=
PLAYORDER=
